<svg id="Layer_1" data-name="Layer 1" xmlns="http://www.w3.org/2000/svg" viewBox="0 0 58 58"><title>icon</title><path d="M32,58A26,26,0,1,1,58,32,26,26,0,0,1,32,58Z" transform="translate(-3 -3)" fill="#fff"/><path d="M32,9A23,23,0,1,1,9,32,23,23,0,0,1,32,9m0-6A29,29,0,1,0,61,32,29,29,0,0,0,32,3h0Z" transform="translate(-3 -3)" fill="#29323e"/><path d="M45.1,34.6H26.4A6.2,6.2,0,0,0,33,39.9a8.8,8.8,0,0,0,6.5-2.8L43.8,41a13.4,13.4,0,0,1-11,5c-8.1,0-14-5.7-14-13.9h0c0-7.7,5.5-14,13.3-14s13.1,7,13.1,14.6h0C45.2,33.4,45.1,33.9,45.1,34.6Zm-13-10.5c-3.2,0-5.2,2.3-5.8,5.7H37.8C37.3,26.4,35.3,24.1,32.1,24.1Z" transform="translate(-3 -3)" fill="#29323e"/></svg>